<?xml version="1.0" standalone="no"?>
<!DOCTYPE svg PUBLIC "-//W3C//DTD SVG 20010904//EN"
 "http://www.w3.org/TR/2001/REC-SVG-20010904/DTD/svg10.dtd">
<svg version="1.0" xmlns="http://www.w3.org/2000/svg"
 width="565.000000pt" height="224.000000pt" viewBox="0 0 565.000000 224.000000"
 preserveAspectRatio="xMidYMid meet">

<g transform="translate(0.000000,224.000000) scale(0.100000,-0.100000)"
fill="#000000" stroke="none">
<path d="M2247 2208 c-53 -69 -104 -250 -131 -459 -17 -128 -36 -448 -36 -604
l0 -100 -45 -11 -45 -10 0 91 0 91 35 34 c45 44 46 85 2 85 l-28 -1 7 181 c10
277 -12 385 -81 393 -53 7 -247 -218 -534 -619 l-105 -145 -205 0 c-192 0
-213 -2 -303 -26 -180 -49 -346 -147 -477 -280 -138 -141 -228 -289 -275 -452
-72 -246 13 -406 194 -366 243 54 587 368 1014 921 l89 116 161 6 c172 6 272
26 373 71 l53 25 0 -84 c0 -46 -4 -87 -10 -90 -5 -3 -14 -15 -20 -25 -8 -15
-6 -23 8 -37 13 -13 23 -45 31 -108 16 -120 49 -191 96 -211 39 -16 85 -10 85
12 0 8 1 17 1 22 1 4 -16 16 -37 27 -47 25 -63 64 -71 182 l-6 82 27 11 c15 5
38 13 51 16 23 6 25 4 25 -34 0 -80 31 -273 56 -354 20 -64 35 -92 65 -122 34
-34 43 -38 71 -32 80 16 131 117 132 261 1 146 -49 257 -149 327 l-43 31 56
38 c32 20 70 51 87 69 l29 31 13 -73 c13 -78 32 -105 63 -88 11 6 34 62 64
155 26 80 50 145 55 145 5 0 16 -30 26 -67 9 -38 25 -82 36 -100 35 -56 101
-60 164 -9 l29 24 27 -29 c30 -33 78 -39 99 -14 9 11 16 13 24 5 14 -14 48
-12 73 5 21 14 21 14 28 -56 11 -104 43 -129 101 -77 21 18 32 49 69 181 17
62 29 67 39 15 9 -47 44 -115 62 -122 27 -10 96 28 168 94 95 86 138 104 251
103 97 0 143 -9 330 -67 128 -40 231 -50 272 -28 19 10 27 10 47 -3 13 -9 46
-18 73 -22 62 -7 124 12 242 73 52 27 98 44 119 44 47 0 92 -30 126 -84 17
-28 36 -46 47 -46 30 0 23 43 -13 91 -50 64 -80 82 -146 87 -55 4 -66 1 -175
-53 -97 -48 -125 -58 -171 -59 -74 -1 -82 9 -55 69 42 94 21 165 -48 165 -80
0 -120 -96 -77 -184 8 -16 14 -31 14 -33 0 -1 -28 -3 -63 -3 -45 0 -102 11
-193 39 -200 60 -275 74 -363 69 -99 -6 -148 -28 -244 -114 -43 -38 -86 -69
-95 -69 -11 0 -23 22 -38 73 -13 40 -28 80 -35 88 -15 18 -69 18 -96 -1 -18
-13 -51 -91 -66 -160 -3 -11 -5 10 -6 47 -1 53 5 83 29 143 35 87 41 171 14
182 -40 15 -78 -42 -100 -148 -14 -68 -50 -147 -61 -135 -3 2 1 30 7 62 11 52
10 59 -6 71 -24 17 -68 17 -104 -2 -29 -15 -80 -73 -80 -92 0 -18 -88 -93
-109 -93 -30 0 -66 51 -97 137 -46 129 -68 151 -109 107 -14 -15 -37 -60 -52
-100 -15 -41 -31 -74 -36 -74 -5 0 -8 71 -7 158 3 194 5 182 -25 182 -40 0
-48 -30 -48 -194 l0 -149 -41 -39 c-36 -35 -162 -118 -179 -118 -10 0 -8 255
3 418 l11 142 53 108 c72 143 107 256 113 362 5 98 -7 133 -49 138 -20 2 -32
-5 -51 -30z m23 -130 c-13 -70 -50 -192 -55 -186 -6 5 22 146 42 212 21 72 30
56 13 -26z m-346 -345 c7 -47 6 -333 -3 -428 l-6 -70 -75 -38 c-41 -21 -106
-44 -144 -52 -78 -16 -306 -32 -306 -21 0 7 259 346 364 476 73 91 146 170
156 170 4 0 10 -17 14 -37z m2524 -396 c2 -14 -4 -40 -14 -58 -16 -31 -17 -32
-30 -14 -19 26 -18 64 3 87 21 24 37 18 41 -15z m-1489 -109 c-25 -63 -29 -69
-29 -37 0 22 33 89 45 89 2 0 -5 -24 -16 -52z m-1772 -166 l42 -7 -126 -160
c-177 -225 -278 -342 -418 -481 -324 -322 -552 -422 -611 -268 -56 148 69 428
288 640 151 148 342 245 533 273 73 10 235 12 292 3z m1090 -187 c42 -61 63
-132 63 -214 0 -77 -13 -130 -40 -163 -15 -19 -22 -21 -37 -12 -43 26 -80 181
-98 403 l-7 84 44 -25 c24 -14 58 -47 75 -73z"/>
<path d="M2645 849 c-131 -20 -225 -62 -198 -89 8 -9 18 -7 40 9 41 30 144 51
251 51 74 0 94 -3 99 -15 7 -19 -18 -48 -74 -87 l-43 -29 0 41 c0 27 -4 40
-14 40 -18 0 -26 -22 -26 -68 0 -31 -5 -40 -32 -55 -22 -12 -28 -21 -21 -28 8
-8 17 -7 32 1 24 12 28 7 33 -45 2 -18 9 -31 20 -33 14 -3 16 5 12 55 l-5 58
48 30 c26 16 51 31 56 33 4 2 7 -30 7 -71 0 -90 13 -108 54 -76 l27 22 15 -22
c13 -18 25 -21 88 -21 76 0 106 15 106 53 0 23 -36 57 -60 57 -20 0 -63 -56
-54 -71 7 -12 -14 -21 -35 -14 -13 4 -22 19 -26 45 -9 54 -20 57 -47 16 -13
-20 -27 -36 -32 -36 -8 0 -2 118 10 187 5 26 2 34 -20 48 -32 21 -128 27 -211
14z m440 -249 c0 -8 -10 -16 -22 -18 -22 -3 -32 16 -16 32 12 11 38 2 38 -14z"/>
<path d="M4754 851 c-43 -19 -36 -31 34 -64 l70 -32 -59 -53 c-55 -50 -60 -52
-81 -39 -25 16 -155 29 -163 17 -9 -14 29 -52 69 -70 l41 -17 -40 -12 c-58
-16 -74 -14 -84 12 -12 32 -27 41 -100 66 -82 27 -81 27 -81 -8 0 -57 86 -123
139 -106 11 3 46 7 78 9 32 1 73 11 91 20 33 17 34 17 28 -2 -7 -21 21 -102
34 -102 13 0 60 86 60 109 0 11 -9 26 -21 35 -21 14 -20 15 21 52 52 47 112
93 123 94 4 0 7 -21 7 -46 0 -51 19 -134 30 -134 4 0 22 16 38 35 40 44 48 90
28 140 -9 21 -14 40 -12 42 10 11 145 6 188 -6 l46 -13 -44 -42 c-56 -54 -60
-98 -15 -148 24 -27 36 -33 71 -33 36 0 47 6 76 38 47 51 45 96 -9 155 -20 21
-20 22 -1 22 37 0 94 -21 122 -45 22 -19 31 -36 36 -74 12 -91 84 -138 109
-71 6 17 18 30 27 30 40 0 52 48 20 80 -16 16 -33 20 -81 20 -53 0 -64 3 -89
29 -32 32 -115 57 -154 47 -14 -3 -42 2 -67 13 -61 27 -143 35 -217 21 -58
-10 -64 -9 -92 12 -34 24 -137 35 -176 19z m141 -26 l30 -13 -42 -1 c-53 -1
-57 -20 -5 -23 36 -1 36 -1 5 -5 -42 -5 -135 34 -113 47 22 14 90 11 125 -5z
m105 -120 c0 -39 -22 -85 -39 -85 -14 0 -19 74 -6 85 7 6 16 23 19 39 10 40
26 16 26 -39z m320 2 c24 -39 25 -65 2 -93 -42 -52 -116 -51 -141 2 -22 49 -5
89 52 124 37 23 59 14 87 -33z m-373 21 c-3 -8 -6 -5 -6 6 -1 11 2 17 5 13 3
-3 4 -12 1 -19z m663 -56 c13 -11 20 -24 16 -30 -9 -15 -43 -16 -51 -2 -12 20
-24 0 -15 -25 6 -17 5 -27 -5 -35 -23 -19 -55 22 -55 70 l0 40 44 0 c28 0 52
-7 66 -18z m-905 -23 c15 -7 10 -8 -17 -4 -23 4 -38 2 -38 -5 0 -5 8 -11 18
-11 15 -1 15 -2 0 -6 -16 -4 -78 22 -78 32 0 9 95 4 115 -6z m-258 -14 c51
-15 98 -50 57 -43 -11 2 -18 -2 -16 -9 4 -23 -45 -14 -77 13 -29 24 -41 54
-23 54 5 0 31 -7 59 -15z m323 -52 c0 -23 -34 -75 -43 -66 -4 3 -6 22 -6 42 1
20 3 28 6 19 6 -24 23 -23 23 2 0 11 5 20 10 20 6 0 10 -8 10 -17z"/>
<path d="M3994 795 c-3 -8 -7 -63 -7 -122 -2 -97 0 -108 16 -111 10 -2 27 4
38 14 19 17 20 17 35 -4 13 -19 25 -22 80 -22 l65 0 -26 -37 c-33 -49 -33 -96
0 -129 34 -34 93 -31 114 7 14 26 10 53 -24 141 -5 12 2 18 24 23 40 9 41 29
1 23 -30 -4 -43 13 -20 27 14 9 13 52 -2 61 -14 9 -48 -31 -48 -56 0 -15 -18
-30 -36 -30 -2 0 -4 15 -4 33 0 19 -3 37 -7 40 -13 13 -33 -16 -33 -49 0 -26
-4 -34 -18 -34 -26 0 -42 20 -42 51 0 15 -6 32 -14 38 -11 9 -18 5 -36 -24
-12 -19 -25 -35 -29 -35 -4 0 -6 47 -3 105 3 76 1 105 -7 105 -6 0 -14 -7 -17
-15z m284 -374 c-4 -32 -33 -39 -60 -15 -22 21 -19 57 9 100 l17 27 18 -44
c11 -24 18 -55 16 -68z"/>
<path d="M3177 763 c-4 -3 -7 -28 -7 -55 0 -45 -2 -49 -22 -46 -33 4 -35 -15
-4 -30 20 -10 26 -20 26 -48 0 -24 5 -34 15 -34 11 0 15 11 15 38 0 35 2 38
46 54 l46 16 -21 -22 c-23 -25 -27 -56 -9 -74 16 -16 60 -15 83 2 16 12 21 11
34 -1 9 -9 27 -13 47 -11 38 4 44 -4 44 -61 0 -78 -67 -117 -112 -66 -12 14
-25 25 -30 25 -17 0 -7 -32 17 -55 35 -36 88 -34 126 4 28 29 29 32 29 130 0
56 -4 101 -9 101 -5 0 -8 8 -7 18 2 31 -47 27 -82 -8 l-31 -30 -25 25 c-14 14
-30 25 -36 25 -6 0 -9 4 -6 9 3 4 -13 5 -37 0 -68 -13 -67 -14 -67 46 0 51 -7
65 -23 48z m293 -142 c0 -17 -31 -41 -51 -41 -20 0 -19 8 4 38 11 14 47 16 47
3z m-142 -18 c-2 -10 -13 -19 -25 -21 -17 -3 -20 1 -16 17 7 26 46 29 41 4z"/>
<path d="M3561 643 c-11 -16 -21 -22 -21 -15 0 6 -7 12 -15 12 -16 0 -19 -28
-9 -67 8 -27 42 -31 50 -5 12 41 31 67 53 72 40 9 38 30 -2 30 -27 0 -40 -7
-56 -27z"/>
<path d="M3866 648 c-9 -12 -17 -32 -17 -43 -1 -11 -4 -5 -8 13 -8 43 -25 42
-29 -3 -3 -31 -6 -35 -33 -35 -33 0 -34 2 -16 31 10 17 9 22 -7 35 -27 20 -48
18 -87 -9 -64 -43 -45 -105 25 -79 20 8 34 8 40 2 6 -6 25 -10 43 -10 33 0 33
0 33 -49 0 -58 7 -81 25 -81 15 0 25 22 25 58 0 37 10 49 61 75 34 17 45 28
47 50 7 59 -69 92 -102 45z m65 -24 c11 -14 10 -19 -10 -35 -20 -17 -51 -26
-51 -15 0 1 5 17 11 35 12 34 29 40 50 15z m-230 -24 c-30 -26 -49 -26 -26 0
10 11 25 20 34 20 12 -1 10 -5 -8 -20z"/>
</g>
</svg>
